<?xml version="1.0" encoding="utf-8"?>
<!-- Generator: Adobe Illustrator 17.0.0, SVG Export Plug-In . SVG Version: 6.00 Build 0)  -->
<!DOCTYPE svg PUBLIC "-//W3C//DTD SVG 1.1//EN" "http://www.w3.org/Graphics/SVG/1.1/DTD/svg11.dtd">
<svg version="1.1" id="Layer_1" xmlns="http://www.w3.org/2000/svg" xmlns:xlink="http://www.w3.org/1999/xlink" x="0px" y="0px"
	 width="169px" height="70.333px" viewBox="0 0 169 70.333" enable-background="new 0 0 169 70.333" xml:space="preserve">
<path fill="#089BD7" d="M46.696,31.855H36.649c0.095,0.265,0.151,0.583,0.151,0.977c0,0.273-0.028,0.539-0.074,0.799h9.083V46.28
	H33.157v-9.004c-0.288,0.057-0.585,0.089-0.89,0.089c-0.303,0-0.599-0.031-0.886-0.087v9.89c0,0.491,0.398,0.888,0.888,0.888h14.427
	c0.49,0,0.888-0.397,0.888-0.888V32.743C47.584,32.253,47.186,31.855,46.696,31.855"/>
<path fill="#4B4D79" d="M45.808,17.423H33.157V4.773h12.651V17.423z M16.95,46.28H4.3V33.631h12.65V46.28z M16.95,17.423H4.3V4.773
	h12.65V17.423z M46.696,2.997H32.27c-0.49,0-0.888,0.398-0.888,0.888v13.982c-0.539-0.285-1.183-0.442-1.913-0.442H18.726V3.885
	c0-0.49-0.398-0.888-0.888-0.888H3.412c-0.49,0-0.888,0.398-0.888,0.888v14.426c0,0.49,0.398,0.888,0.888,0.888h13.541v10.742
	c0,0.726,0.163,1.371,0.457,1.913H3.412c-0.49,0-0.888,0.398-0.888,0.888v14.425c0,0.491,0.398,0.888,0.888,0.888h14.426
	c0.49,0,0.888-0.397,0.888-0.888V33.17c0.542,0.294,1.188,0.457,1.913,0.457h7.17c-0.047-0.259-0.075-0.524-0.075-0.796
	c0-0.397,0.057-0.715,0.152-0.98h-7.247c-1.249,0-1.911-0.661-1.911-1.91v-10.74h10.74c1.25,0,1.911,0.661,1.911,1.91v9.558
	c0.288,0.005,0.585,0.009,0.889,0.009c0.304,0,0.6-0.005,0.887-0.009v-9.558c0-0.73-0.156-1.374-0.442-1.913h13.983
	c0.49,0,0.888-0.398,0.888-0.888V3.885C47.584,3.395,47.186,2.997,46.696,2.997"/>
<path fill="#EF6861" d="M32.268,29.786c-1.683,0-3.047,1.364-3.047,3.046c0,1.682,1.364,3.046,3.047,3.046
	c1.681,0,3.046-1.365,3.046-3.046C35.314,31.15,33.949,29.786,32.268,29.786 M32.268,31.561c0.7,0,1.269,0.569,1.269,1.27
	c0,0.7-0.569,1.271-1.269,1.271c-0.701,0-1.271-0.57-1.271-1.271C30.997,32.131,31.567,31.561,32.268,31.561"/>
<path fill="#EF6861" d="M91.248,6.907h-3.665c-0.266,0-0.389,0.232-0.389,0.389v15.495c0,0.368-0.299,0.666-0.666,0.666H69.313
	c-0.367,0-0.666-0.299-0.666-0.666V7.296c0-0.157-0.124-0.389-0.389-0.389h-3.665c-0.186,0-0.39,0.204-0.39,0.389V44.06
	c0,0.186,0.204,0.39,0.39,0.39h3.665c0.265,0,0.389-0.233,0.389-0.39V28.011c0-0.368,0.299-0.666,0.666-0.666h17.215
	c0.367,0,0.666,0.298,0.666,0.666V44.06c0,0.158,0.124,0.39,0.389,0.39h3.665c0.186,0,0.39-0.204,0.39-0.39V7.296
	C91.637,7.111,91.434,6.907,91.248,6.907"/>
<path fill="#EF6861" d="M115.075,23.346h-2.889c-0.689,0-0.753,0.129-0.771,0.529l0.001,11.968c0,3.018-2.455,5.473-5.473,5.473
	s-5.474-2.455-5.474-5.473V23.952c-0.001-0.304-0.304-0.606-0.611-0.606h-3.165c-0.309,0-0.611,0.303-0.611,0.61v11.219
	c0,4.585,1.484,10.052,8.553,10.052c3.954,0,6.144-2.094,6.864-2.782c0.07-0.067,0.127-0.121,0.171-0.159
	c0.112-0.099,0.265-0.135,0.407-0.098c0.144,0.037,0.259,0.145,0.308,0.284l0.556,1.61c0.183,0.545,0.396,0.59,0.58,0.59h1.555
	c0.309,0,0.611-0.303,0.611-0.612V23.956C115.687,23.649,115.384,23.346,115.075,23.346"/>
<path fill="#EF6861" d="M131.519,63.958c-3.656,0-6.629-2.973-6.629-6.627c0-3.655,2.974-6.628,6.629-6.628
	c3.653,0,6.625,2.973,6.625,6.628C138.143,60.985,135.172,63.958,131.519,63.958 M131.518,27.658c2.736,0,4.963,2.227,4.963,4.965
	c0,2.737-2.226,4.963-4.963,4.963c-2.738,0-4.965-2.226-4.965-4.963C126.553,29.885,128.78,27.658,131.518,27.658 M131.519,46.561
	h-4.445c-1.831,0-3.11-1.118-3.11-2.721c0-2.007,2.066-3.165,2.721-3.165c0.199,0,0.421,0.075,0.791,0.197
	c0.78,0.259,2.084,0.693,4.041,0.693c5.844,0,8.997-4.435,8.997-8.609c0-3.87-2.121-5.519-2.212-5.587
	c-0.135-0.103-0.201-0.273-0.169-0.439c0.032-0.167,0.155-0.3,0.319-0.345l3.056-0.833c0.018-0.004,0.036-0.008,0.054-0.01
	c0.086-0.013,0.228-0.254,0.228-0.506v-1.388c0-0.365-0.245-0.611-0.611-0.611h-9.719c-5.107,0-9.108,4.075-9.108,9.276
	c0,3.116,1.602,5.081,1.619,5.102c0.086,0.103,0.12,0.239,0.094,0.371c-0.027,0.131-0.111,0.245-0.229,0.307
	c-0.037,0.019-3.706,1.991-3.706,5.936c0,3.375,2.603,4.674,3.401,4.993c0.136,0.054,0.238,0.172,0.269,0.316
	c0.032,0.144-0.01,0.294-0.111,0.401c-1.898,2.008-2.943,4.634-2.943,7.393c0,5.938,4.833,10.769,10.772,10.769
	c5.937,0,10.767-4.831,10.767-10.769C142.286,51.393,137.456,46.561,131.519,46.561"/>
<path fill="#EF6861" d="M155.73,40.529c-3.656,0-6.63-2.972-6.63-6.626c0-3.654,2.974-6.628,6.63-6.628
	c3.653,0,6.624,2.973,6.624,6.628C162.354,37.557,159.383,40.529,155.73,40.529 M155.729,23.134c-5.94,0-10.772,4.831-10.772,10.77
	c0,5.938,4.832,10.769,10.772,10.769c5.937,0,10.766-4.832,10.766-10.769C166.495,27.965,161.666,23.134,155.729,23.134"/>
</svg>
